<svg xmlns="http://www.w3.org/2000/svg">
  <defs>
        <symbol id="icon-run" viewBox="0 0 100 125"> 
            <svg xmlns="http://www.w3.org/2000/svg" xmlns:xlink="http://www.w3.org/1999/xlink" xmlns:serif="http://www.serif.com/" 
viewBox="0 0 100 125" version="1.1" xml:space="preserve" style="" x="0px" y="0px" fill-rule="evenodd" clip-rule="evenodd" stroke-linejoin="round" stroke-miterlimit="2"><rect serif:id="50 - icon_name" x="0" y="0" width="100" height="100" style="" fill="none"/><g><g><path d="M42.392,54.842c-0.653,1.131 -0.83,2.475 -0.492,3.736c0.338,1.261 1.163,2.336 2.294,2.989l11.969,6.91c-0,0 -4.148,7.185 -6.887,11.929c-1.302,2.256 -0.53,5.14 1.726,6.442c0,0 0,0 0,0c1.079,0.623 2.362,0.792 3.565,0.47c1.204,-0.323 2.23,-1.11 2.853,-2.189c2.537,-4.395 6.562,-11.366 9.142,-15.835c1.359,-2.354 0.552,-5.365 -1.802,-6.724c-4.809,-2.777 -11.969,-6.91 -11.969,-6.91l11.768,-20.383c0.833,-1.444 0.833,-3.223 -0,-4.666c-0.834,-1.444 -2.374,-2.333 -4.041,-2.333l-24.79,-0c-2.6,-0 -4.707,2.107 -4.707,4.707l-0,0c-0,1.249 0.496,2.446 1.379,3.329c0.882,0.882 2.079,1.378 3.328,1.378l16.565,0c0,0 -6.295,10.905 -9.901,17.15Z"/><path d="M40.645,57.869l-4.658,8.066l-14.255,0c-1.248,0 -2.445,0.496 -3.328,1.379c-0.883,0.883 -1.379,2.08 -1.379,3.328l0,0.001c0,2.599 2.108,4.707 4.707,4.707l18.033,-0c1.026,-0 1.974,-0.547 2.486,-1.436l5.275,-9.136l-3.89,-2.246c-1.386,-0.801 -2.398,-2.119 -2.812,-3.666c-0.088,-0.329 -0.148,-0.663 -0.179,-0.997Z"/><path d="M66.278,33.423c-0.069,0.836 -0.321,1.66 -0.754,2.411l-4.245,7.351l1.755,2.804c0.451,0.72 1.24,1.157 2.089,1.157c2.698,0 8.824,0 13.145,0c2.599,0 4.707,-2.107 4.707,-4.707l-0,-0c-0,-1.249 -0.496,-2.446 -1.379,-3.328c-0.883,-0.883 -2.08,-1.379 -3.328,-1.379l-9.291,-0l-2.699,-4.309Z"/><ellipse cx="67.495" cy="20.76" rx="8.238" ry="8.238"/></g></g></svg>
        </symbol>
        <symbol id="icon-person" viewBox="0 0 24 30">
            <svg xmlns="http://www.w3.org/2000/svg" viewBox="0 0 24 30" x="0px" y="0px"><path d="M12,1.004C5.937,1.004,1.004,5.937,1.004,12c0,3.429,1.579,6.495,4.047,8.513,.018,.017,.038,.03,.058,.044,1.887,1.522,4.282,2.439,6.89,2.439s5.004-.917,6.891-2.44c.02-.014,.039-.026,.057-.042,2.468-2.018,4.048-5.084,4.048-8.513,0-6.063-4.933-10.996-10.996-10.996Zm6.129,18.875c-1.695,1.321-3.818,2.116-6.129,2.116s-4.434-.795-6.129-2.116c-.016-.161-.032-.322-.032-.489,0-2.595,1.619-4.885,4.039-5.768,.64,.329,1.354,.533,2.121,.533s1.482-.204,2.121-.533c2.42,.883,4.039,3.174,4.039,5.768,0,.167-.016,.328-.032,.489ZM8.328,9.482c0-2.025,1.647-3.672,3.672-3.672s3.672,1.647,3.672,3.672-1.647,3.672-3.672,3.672-3.672-1.647-3.672-3.672Zm10.801,9.512c-.145-2.62-1.693-4.922-4.031-6.041,.958-.856,1.575-2.088,1.575-3.471,0-2.576-2.096-4.672-4.672-4.672s-4.672,2.096-4.672,4.672c0,1.383,.616,2.615,1.575,3.471-2.338,1.119-3.886,3.421-4.031,6.041-1.771-1.804-2.867-4.272-2.867-6.994C2.004,6.488,6.488,2.004,12,2.004s9.996,4.484,9.996,9.996c0,2.722-1.096,5.19-2.867,6.994Z"/></svg>
        </symbol>
        <symbol id="icon-road" viewBox="-5.0 -10.0 110.0 135.0">
            <svg xmlns="http://www.w3.org/2000/svg" version="1.1" viewBox="-5.0 -10.0 110.0 135.0">
            <path d="m17.039 98.359c-0.67969 0-1.3086-0.44922-1.5-1.1406-0.23047-0.82812 0.26172-1.6797 1.0898-1.9102 8.1719-2.2383 14.199-5.8789 17.91-10.809 6-7.9805 5.9102-18.52-0.30078-33.191l-0.12109-0.28906c-3.8906-9.1914-7.9219-18.699-4.7891-28.98 2.6719-8.7695 9.3594-16.352 17.91-20.25 0.78125-0.35937 1.6992-0.011718 2.0586 0.76953s0.011719 1.6992-0.76953 2.0586c-7.75 3.5391-13.809 10.398-16.23 18.328-2.8008 9.2109 1 18.18 4.6797 26.871l0.12891 0.30078c6.6016 15.57 6.5703 27.43-0.078125 36.27-4.1406 5.5-10.719 9.5117-19.57 11.941-0.14062 0.039063-0.28125 0.050781-0.41016 0.050781z"/>
            <path d="m49.988 95.141c-0.44922 0-0.89062-0.19141-1.1992-0.55859-0.55078-0.66016-0.44922-1.6406 0.21094-2.1914 1.8398-1.5195 3.4219-3.3594 4.7188-5.4688 0.44922-0.73047 1.4102-0.96094 2.1406-0.51172 0.73047 0.44922 0.96094 1.3984 0.51172 2.1406-1.4805 2.3984-3.2891 4.5-5.3906 6.2383-0.28906 0.23828-0.64062 0.35938-0.98828 0.35938zm8.0625-12.98c-0.12891 0-0.26172-0.019531-0.39062-0.050781-0.82812-0.21094-1.3281-1.0586-1.1211-1.8906 0.58984-2.2891 0.89844-4.75 0.89844-7.3008 0-0.85938 0.69922-1.5508 1.5508-1.5508 0.85938 0 1.5508 0.69922 1.5508 1.5586 0 2.8086-0.35156 5.5312-1 8.0703-0.17969 0.69922-0.80859 1.1719-1.5 1.1719zm0.1875-15.41c-0.73047 0-1.3789-0.51953-1.5195-1.2617-0.44922-2.3398-1.1211-4.7812-1.9883-7.2617-0.28125-0.80859 0.14062-1.6992 0.94922-1.9805 0.80859-0.28906 1.6914 0.14062 1.9805 0.94922 0.92188 2.6289 1.6289 5.2188 2.1094 7.6992 0.16016 0.83984-0.39062 1.6602-1.2305 1.8203-0.10156 0.019531-0.19922 0.03125-0.30078 0.03125zm-5.0391-14.641c-0.57812 0-1.1406-0.32812-1.3984-0.89062-1.3281-2.8008-2.3281-5.1016-3.1406-7.2383-0.30078-0.80078 0.10156-1.6992 0.89844-2 0.80078-0.30078 1.6992 0.10156 2 0.89844 0.78125 2.0586 1.7383 4.2891 3.0391 7.0117 0.37109 0.78125 0.039063 1.6992-0.73828 2.0703-0.21875 0.10156-0.44141 0.14844-0.67188 0.14844zm-5.2695-14.57c-0.73047 0-1.3789-0.51172-1.5195-1.25-0.42969-2.1719-0.64062-4.3008-0.64062-6.3203 0-0.60156 0.019531-1.1992 0.058594-1.8008 0.058594-0.85938 0.80078-1.4805 1.6484-1.4492 0.85938 0.050781 1.5117 0.78906 1.4492 1.6484-0.03125 0.53906-0.050781 1.0703-0.050781 1.6016 0 1.8203 0.19922 3.75 0.58984 5.7188 0.17188 0.83984-0.37891 1.6602-1.2188 1.8281-0.10156 0.019531-0.19922 0.03125-0.30078 0.03125zm1.0898-15.289c-0.17969 0-0.35938-0.03125-0.53906-0.10156-0.80078-0.30078-1.2109-1.1914-0.92188-2 0.92969-2.5117 2.1797-4.9414 3.7109-7.2109 0.48047-0.71094 1.4492-0.89844 2.1602-0.42188 0.71094 0.48047 0.89844 1.4414 0.42187 2.1602-1.3906 2.0703-2.5312 4.2812-3.3789 6.5586-0.23047 0.62891-0.82812 1.0117-1.4609 1.0117zm8.5586-12.801c-0.41016 0-0.82031-0.16016-1.1289-0.48047-0.58984-0.62109-0.55859-1.6094 0.058593-2.1992 1.9688-1.8594 4.1289-3.5117 6.4297-4.8984 0.73047-0.44141 1.6914-0.21094 2.1289 0.53125 0.44141 0.73047 0.21094 1.6914-0.53125 2.1289-2.1094 1.2695-4.0898 2.7891-5.8984 4.5-0.30078 0.28906-0.69141 0.42969-1.0703 0.42969z"/>
            <path d="m62.891 98.359c-0.57031 0-1.1211-0.30859-1.3906-0.85938-0.37891-0.76953-0.070312-1.6992 0.69141-2.0781 1.2305-0.60938 2.3984-1.3789 3.4805-2.2617 7.7891-6.4102 10.172-18.16 9.0781-26.949-0.94922-7.6797-3.9688-15.75-8.9492-23.98-4.0508-6.6914-5.1289-13.32-3.2109-19.699 3.9414-13.121 19.059-20.422 19.699-20.719 0.76953-0.37109 1.6992-0.039062 2.0703 0.73828 0.37109 0.76953 0.039063 1.6992-0.73828 2.0703-0.14062 0.070312-14.531 7.0312-18.059 18.82-1.6484 5.5117-0.67969 11.289 2.8906 17.191 5.2109 8.6094 8.3711 17.102 9.3789 25.211 1.1094 8.9297-0.89844 22.078-10.191 29.73-1.2617 1.0312-2.6211 1.9297-4.0586 2.6406-0.21875 0.10938-0.46094 0.16016-0.69141 0.16016z"/>
            </svg>
        </symbol>
        <symbol id="icon-leaderboard" viewBox="-5.0 -10.0 110.0 135.0">
            <svg xmlns="http://www.w3.org/2000/svg" version="1.1" viewBox="-5.0 -10.0 110.0 135.0">
            <path d="m86.168 54.223h-16.055c-1.3594 0-2.6406 0.35938-3.7773 0.94531l-0.003907-41.336c0-2.168-0.89062-4.3047-2.418-5.8594-1.5547-1.5547-3.668-2.4453-5.8594-2.4453h-16.082c-2.168 0-4.3047 0.89062-5.8594 2.4453-1.5547 1.5547-2.418 3.668-2.418 5.8594v21.859c-1.168-0.58203-2.418-0.94531-3.7773-0.94531h-16.055c-2.168 0-4.3047 0.89062-5.8594 2.418-1.5547 1.5273-2.418 3.6406-2.418 5.8594v49.141c0 1.25 1 2.25 2.25 2.25h84.359c1.25 0 2.25-1 2.25-2.25v-29.668c0-4.582-3.7227-8.2773-8.2773-8.2773zm-76.086-11.168c0-1 0.39062-1.9727 1.1094-2.668 0.72266-0.69531 1.668-1.1094 2.668-1.1094h16.055c1 0 1.9453 0.39062 2.668 1.1094 0.72266 0.72266 1.1094 1.668 1.1094 2.668v46.891h-23.609zm28.113-29.223c0-1 0.39063-1.9727 1.1094-2.668 0.69531-0.69531 1.668-1.1094 2.668-1.1094h16.082c1 0 1.9727 0.41797 2.668 1.1094 0.69531 0.69531 1.1094 1.668 1.1094 2.668v76.082h-23.609v-76.082zm51.723 76.082h-23.609v-27.418c0-2.082 1.6953-3.7773 3.7773-3.7773h16.055c2.082 0 3.7773 1.6953 3.7773 3.7773z"/>
            </svg>
        </symbol>

    <!-- Icons go here -->
  </defs>
</svg>