<svg xmlns="http://www.w3.org/2000/svg" version="1.1" viewBox="-5.0 -10.0 110.0 135.0">
 <path d="m93.336 68.398v-37.336c0-6.6875-0.003907-11.395-0.48047-14.957-0.46484-3.4727-1.332-5.3906-2.7188-6.7773-1.3906-1.3867-3.3125-2.2539-6.7852-2.7227-3.5586-0.47656-8.2656-0.48438-14.953-0.48438h-4.668c-6.6836 0-11.391 0.007812-14.953 0.48438-3.4727 0.46875-5.3984 1.332-6.7891 2.7188h0.003907c-1.2188 1.2188-2.0273 2.8438-2.5234 5.5469-0.51172 2.7891-0.64453 6.4414-0.67188 11.543-0.011719 1.6914-1.3906 3.0508-3.082 3.043-1.6875-0.011719-3.0508-1.3867-3.043-3.0781 0.03125-5.0508 0.15234-9.2227 0.77344-12.617 0.64063-3.4805 1.8477-6.3984 4.2148-8.7656h0.003906c2.7148-2.7148 6.1445-3.8984 10.297-4.457 4.0664-0.54687 9.2578-0.53906 15.77-0.53906h4.668c6.5156 0 11.707-0.0078125 15.77 0.53906 4.1523 0.55859 7.582 1.7461 10.297 4.457 2.7148 2.7148 3.8984 6.1445 4.457 10.297 0.54688 4.0625 0.53906 9.2539 0.53906 15.77v37.336c0 6.5117 0.007812 11.707-0.53906 15.77-0.55859 4.1523-1.7422 7.5781-4.457 10.293-2.7148 2.7188-6.1445 3.9023-10.297 4.4609-4.0625 0.54688-9.2539 0.53906-15.77 0.53906h-4.668c-6.5117 0-11.703 0.003906-15.766-0.54297-4.1523-0.55469-7.582-1.7422-10.297-4.4531-2.3672-2.3672-3.5781-5.2852-4.2188-8.7695-0.62109-3.3945-0.74609-7.5625-0.77734-12.617-0.007813-1.6914 1.3555-3.0664 3.043-3.0781 1.6914-0.011719 3.0703 1.3516 3.082 3.043 0.03125 5.1016 0.16016 8.7578 0.67578 11.547 0.49609 2.7031 1.3047 4.3242 2.5234 5.543l0.26562 0.25391c1.3711 1.2383 3.2617 2.0273 6.5156 2.4648 3.5625 0.47656 8.2695 0.48438 14.953 0.48438h4.668c6.6875 0 11.395-0.003907 14.957-0.48438 3.4727-0.46484 5.3945-1.3281 6.7773-2.7188 1.3906-1.3867 2.2539-3.3086 2.7188-6.7812 0.48047-3.5625 0.48438-8.2695 0.48438-14.953z"/>
 <path d="m17.395 33.406c1.2852-1.1016 3.2148-0.95312 4.3164 0.33203 1.1016 1.2812 0.95312 3.2148-0.33203 4.3164l-10.043 8.6133h52.395c1.6914 0 3.0625 1.3711 3.0625 3.0625 0 1.6914-1.3711 3.0625-3.0625 3.0625h-52.395l10.043 8.6133c1.2852 1.1016 1.4336 3.0312 0.33203 4.3164-1.1016 1.2852-3.0312 1.4297-4.3164 0.33203l-16.328-14c-0.67578-0.58203-1.0664-1.4297-1.0664-2.3242s0.39062-1.7422 1.0664-2.3242z"/>
</svg>