<svg xmlns="http://www.w3.org/2000/svg" version="1.1" viewBox="-5.0 -10.0 110.0 135.0">
 <path d="m86.168 54.223h-16.055c-1.3594 0-2.6406 0.35938-3.7773 0.94531l-0.003907-41.336c0-2.168-0.89062-4.3047-2.418-5.8594-1.5547-1.5547-3.668-2.4453-5.8594-2.4453h-16.082c-2.168 0-4.3047 0.89062-5.8594 2.4453-1.5547 1.5547-2.418 3.668-2.418 5.8594v21.859c-1.168-0.58203-2.418-0.94531-3.7773-0.94531h-16.055c-2.168 0-4.3047 0.89062-5.8594 2.418-1.5547 1.5273-2.418 3.6406-2.418 5.8594v49.141c0 1.25 1 2.25 2.25 2.25h84.359c1.25 0 2.25-1 2.25-2.25v-29.668c0-4.582-3.7227-8.2773-8.2773-8.2773zm-76.086-11.168c0-1 0.39062-1.9727 1.1094-2.668 0.72266-0.69531 1.668-1.1094 2.668-1.1094h16.055c1 0 1.9453 0.39062 2.668 1.1094 0.72266 0.72266 1.1094 1.668 1.1094 2.668v46.891h-23.609zm28.113-29.223c0-1 0.39063-1.9727 1.1094-2.668 0.69531-0.69531 1.668-1.1094 2.668-1.1094h16.082c1 0 1.9727 0.41797 2.668 1.1094 0.69531 0.69531 1.1094 1.668 1.1094 2.668v76.082h-23.609v-76.082zm51.723 76.082h-23.609v-27.418c0-2.082 1.6953-3.7773 3.7773-3.7773h16.055c2.082 0 3.7773 1.6953 3.7773 3.7773z"/>
</svg>