<svg xmlns="http://www.w3.org/2000/svg" version="1.1" viewBox="-5.0 -10.0 110.0 135.0">
 <path d="m27.43 58.602c1.6914 0.32031 3.2617 1.3203 4.2891 2.7383 9.7188 13.371 24.672 24.441 39.469 24.441 5.3516 0 10.691-1.4492 15.75-4.75l0.011719-0.011719c1.1484-0.71094 2.0703-1.7695 2.5781-3.0391 0.66016-1.6211 0.62891-3.3711-0.10156-4.9297-1.6094-3.4609-5.3516-7.8516-11.781-13.801-1.2383-1.1484-2.2383-2.4805-2.9805-3.9688l-15.105-30.43c-0.66016-1.3203-1.8398-2.3203-3.2617-2.7383-1.4102-0.42188-2.9492-0.23047-4.2109 0.51172-2.5312 1.4883-4.7812 2.5508-6.7812 3.3203-0.12109-0.019531-0.23828-0.039062-0.35938-0.050781l-2.5195-5.8711c-0.69141-1.5703-2.2188-2.6289-3.9883-2.7695-1.9492-0.17188-3.9609-1.0898-6.1484-2.8281-0.011718-0.011719-0.03125-0.011719-0.050781-0.019531-0.078125-0.050781-0.16016-0.10156-0.25-0.12891-0.058593-0.019532-0.10938-0.03125-0.17188-0.039063-0.070312-0.011719-0.14062-0.019531-0.21094-0.019531-0.050781 0-0.10156 0.011719-0.14844 0.019531-0.070312 0.011719-0.12891 0.03125-0.19922 0.058594-0.039062 0.019531-0.078124 0.03125-0.12109 0.058594-0.10156 0.058593-0.19141 0.12891-0.26172 0.21875l-10.875 13.316c-0.019531 0.03125-0.039062 0.058594-0.058594 0.089844-0.30078 0.44922-1.0703 1.2109-1.9688 2.1016-3.9219 3.8789-12.07 11.941-5.4883 19.871 3.8672 4.6562 6.1172 6.9766 14.945 8.6484zm25.66-34.25c0.51953-0.30078 1.0898-0.46094 1.6719-0.46094 0.32031 0 0.64062 0.050781 0.96094 0.14062 0.89844 0.26953 1.6211 0.87891 2.0391 1.7109l2.8711 5.7695-5.2188-0.37891c-0.57031-0.03125-1.0312 0.37109-1.0703 0.92188-0.039062 0.55078 0.37109 1.0312 0.92188 1.0703l6.3984 0.46875 2.0508 4.1289-4.8594-0.35938c-0.57031-0.039062-1.0312 0.37109-1.0703 0.92188-0.039062 0.55078 0.37109 1.0312 0.92188 1.0703l6.0508 0.44922 2.0508 4.1211-4.5-0.32812c-0.55078-0.03125-1.0312 0.37109-1.0703 0.92969-0.039062 0.55078 0.37109 1.0312 0.92188 1.0703l5.6797 0.41016 2.0508 4.1289-4.1289-0.30859c-0.55859-0.039063-1.0312 0.37109-1.0703 0.92188-0.039062 0.55078 0.37109 1.0312 0.92188 1.0703l5.3086 0.39844 1.9609 3.9492c0.17969 0.35156 0.37109 0.69141 0.57031 1.0312l-4.4531 0.64062c-1.2109 0.17969-2.3594-0.39844-2.9492-1.4609-1.3398-2.3984-2.75-5.2305-4.25-8.2188-4.4492-8.8789-9.0391-18.02-13.859-21.148 1.5898-0.70312 3.2969-1.5703 5.1484-2.6602zm-20.16-2.543c0.33984-1.2695 0.32031-1.4219 0.03125-3.9219-0.019532-0.17969-0.039063-0.37109-0.070313-0.57812 1.8281 1.1484 3.6016 1.7812 5.3594 1.9297 1.0391 0.078125 1.9297 0.69141 2.3203 1.5703l2.5312 5.8789c-2.8203 0.85938-5.0195 1.0703-6.5898 1.0195-0.78125-0.019531-2.8203-1.0586-3.8398-2.2812-0.35156-0.42188-0.41016-0.67188-0.39844-0.73047 0.29687-1.5352 0.51562-2.3438 0.65625-2.8867zm-2-4.1289c0.019531 0.16016 0.039062 0.30078 0.050781 0.44141 0.26172 2.2695 0.26172 2.2695 0.019531 3.1719-0.14844 0.57031-0.37891 1.4219-0.69141 3.0508-0.14062 0.71875 0.12109 1.4883 0.76172 2.2891 1.2305 1.5391 3.8516 3.0391 5.3906 3.0898 2.0703 0.070313 5.0703-0.26172 9.0117-1.6992 4.6797 1.3594 10.141 12.25 14.539 21.039 1.5117 3.0117 2.9297 5.8516 4.2891 8.2891 0.87891 1.5781 2.5 2.5195 4.2695 2.5195 0.23828 0 0.48047-0.019532 0.71875-0.050782l5.4492-0.78125c0.48047 0.58984 0.98828 1.1602 1.5508 1.6797 4 3.6992 6.9492 6.8203 8.9414 9.4219-5.4102 1.7695-11.91-0.76172-20.852-8.0781-0.42969-0.35156-1.0586-0.28906-1.4102 0.14062s-0.28906 1.0586 0.14062 1.4102c7.5 6.1289 13.488 9.0898 18.672 9.0898 1.6211 0 3.1602-0.30859 4.6406-0.87109 0.48047 0.73828 0.87891 1.4297 1.1797 2.0703 0.48828 1.0508 0.51172 2.2383 0.070313 3.3281-0.46875 1.1406-1.3984 2.0508-2.5703 2.4805-5.8711 2.1914-14-0.011719-23.738-6.3281 0.75-2.7812 0.92188-5.4219 0.46875-7.8594-0.57031-3.1484-2.4219-6.0898-5.3711-8.5-3.25-2.6602-5.6094-6.4883-7.0312-11.371-0.75-2.5312-2.6289-4.5898-5.0508-5.5312-4.9688-1.9414-9.3906-3.4609-13.5-4.6406-2.3516-0.67969-4.1914-2.5195-4.8008-4.8086-0.44922-1.6719-0.80859-3.5508-1.1094-5.6914zm-9.3789 11.48 1.7188-2.1094c0.25 1.5 0.53906 2.8711 0.87891 4.1289 0.78125 2.9609 3.1484 5.3398 6.1719 6.2109 4.0508 1.1602 8.4102 2.6602 13.32 4.5781 1.8516 0.71875 3.2891 2.3008 3.8594 4.2305 1.5312 5.2812 4.1211 9.4414 7.6914 12.359 1.7891 1.4688 4.0586 3.9297 4.6719 7.3086 0.35938 1.9609 0.26172 4.0781-0.26953 6.3281-1.3203-0.91016-2.6719-1.8789-4.0508-2.9414-2.0195-1.5508-3.9688-3.3594-5.7812-5.3789-3.2695-3.6602-6.4219-6.5391-9.6289-8.8203-3.6289-2.9414-6.3984-5.5703-8.4219-8.0117-1.8398-2.2109-3.6602-4.0312-5.5703-5.5703l-3.6094-2.8984c-1.3984-1.1211-2.2695-2.7188-2.4609-4.5117-0.17187-1.7734 0.35156-3.5117 1.4805-4.9023zm-3.4805 3.6602c-0.03125 0.48047-0.03125 0.96875 0.019532 1.4688 0.23828 2.3203 1.3789 4.3984 3.1992 5.8594l3.6094 2.8984c1.8008 1.4492 3.5312 3.1719 5.2812 5.2812 2.1094 2.5391 4.9688 5.2695 8.75 8.3281 3.1289 2.2305 6.1719 5.0195 9.3398 8.5586 1.8906 2.1094 3.9297 4.0117 6.0508 5.6289 9.7188 7.4414 18.051 11.34 24.879 11.672-16.461 5.2695-34.711-6.9883-45.891-22.359-1.3281-1.8281-3.3516-3.1211-5.5312-3.5312-8.5117-1.6094-10.27-3.7383-13.781-7.9688-4.5469-5.4844-0.61719-10.984 4.0742-15.836z"/>
<text x="0.0" y="117.5" font-size="5.0" font-weight="bold" font-family="Arbeit Regular, Helvetica, Arial-Unicode, Arial, Sans-serif" fill="#000000">Created by Rahmad romadoni</text><text x="0.0" y="122.5" font-size="5.0" font-weight="bold" font-family="Arbeit Regular, Helvetica, Arial-Unicode, Arial, Sans-serif" fill="#000000">from Noun Project</text></svg>