<svg xmlns="http://www.w3.org/2000/svg" xmlns:xlink="http://www.w3.org/1999/xlink" xmlns:serif="http://www.serif.com/" 
viewBox="0 0 100 125" version="1.1" xml:space="preserve" style="" x="0px" y="0px" fill-rule="evenodd" clip-rule="evenodd" stroke-linejoin="round" stroke-miterlimit="2"><rect serif:id="50 - icon_name" x="0" y="0" width="100" height="100" style="" fill="none"/><g><g><path d="M42.392,54.842c-0.653,1.131 -0.83,2.475 -0.492,3.736c0.338,1.261 1.163,2.336 2.294,2.989l11.969,6.91c-0,0 -4.148,7.185 -6.887,11.929c-1.302,2.256 -0.53,5.14 1.726,6.442c0,0 0,0 0,0c1.079,0.623 2.362,0.792 3.565,0.47c1.204,-0.323 2.23,-1.11 2.853,-2.189c2.537,-4.395 6.562,-11.366 9.142,-15.835c1.359,-2.354 0.552,-5.365 -1.802,-6.724c-4.809,-2.777 -11.969,-6.91 -11.969,-6.91l11.768,-20.383c0.833,-1.444 0.833,-3.223 -0,-4.666c-0.834,-1.444 -2.374,-2.333 -4.041,-2.333l-24.79,-0c-2.6,-0 -4.707,2.107 -4.707,4.707l-0,0c-0,1.249 0.496,2.446 1.379,3.329c0.882,0.882 2.079,1.378 3.328,1.378l16.565,0c0,0 -6.295,10.905 -9.901,17.15Z"/><path d="M40.645,57.869l-4.658,8.066l-14.255,0c-1.248,0 -2.445,0.496 -3.328,1.379c-0.883,0.883 -1.379,2.08 -1.379,3.328l0,0.001c0,2.599 2.108,4.707 4.707,4.707l18.033,-0c1.026,-0 1.974,-0.547 2.486,-1.436l5.275,-9.136l-3.89,-2.246c-1.386,-0.801 -2.398,-2.119 -2.812,-3.666c-0.088,-0.329 -0.148,-0.663 -0.179,-0.997Z"/><path d="M66.278,33.423c-0.069,0.836 -0.321,1.66 -0.754,2.411l-4.245,7.351l1.755,2.804c0.451,0.72 1.24,1.157 2.089,1.157c2.698,0 8.824,0 13.145,0c2.599,0 4.707,-2.107 4.707,-4.707l-0,-0c-0,-1.249 -0.496,-2.446 -1.379,-3.328c-0.883,-0.883 -2.08,-1.379 -3.328,-1.379l-9.291,-0l-2.699,-4.309Z"/><ellipse cx="67.495" cy="20.76" rx="8.238" ry="8.238"/></g></g></svg>